<svg width="124.000000" height="20.000000" viewBox="0 0 124 20" fill="none" xmlns="http://www.w3.org/2000/svg" xmlns:xlink="http://www.w3.org/1999/xlink">
	<desc>
			Created with Pixso.
	</desc>
	<defs>
		<clipPath id="clip54_1154">
			<rect id="Icon/arrow/up" width="16.000000" height="14.999999" transform="translate(124.000000 2.000000) rotate(90.000000)" fill="white" fill-opacity="0"/>
		</clipPath>
	</defs>
	<rect id="btn/style-3/closed" width="124.000000" height="20.000000" fill="#FFFFFF" fill-opacity="0"/>
	<path id="Подробнее" d="M62.7754 16.336C59.6974 16.336 58.3114 14.032 58.3114 10.882C58.3114 7.624 59.2474 5.644 62.4154 4.312L65.6734 2.908L66.2494 4.348L62.7574 5.806C60.9394 6.634 60.0754 7.696 59.9494 9.442L59.9854 9.442C60.7954 8.218 62.0014 7.822 63.2074 7.822C65.4934 7.822 67.0774 9.442 67.0774 12.016C67.0774 14.536 65.3494 16.336 62.7754 16.336ZM3.71967 16.12L1.93767 16.12L1.93767 3.412L11.9457 3.412L11.9457 16.12L10.1637 16.12L10.1637 4.96L3.71967 4.96L3.71967 16.12ZM19.1173 16.336C16.3993 16.336 14.2033 14.32 14.2033 11.548C14.2033 8.794 16.3993 6.796 19.0993 6.796C21.8173 6.796 24.0133 8.794 24.0133 11.548C24.0133 14.32 21.8173 16.336 19.1173 16.336ZM38.3226 19.72L36.5766 19.72L36.5766 7.012L38.1966 7.012L38.1966 7.822C38.1966 8.2 38.1426 8.506 38.1426 8.506L38.1786 8.506C38.7546 7.408 39.9066 6.796 41.2386 6.796C43.7046 6.796 45.2346 8.74 45.2346 11.566C45.2346 14.464 43.5066 16.336 41.1126 16.336C39.9606 16.336 38.9166 15.76 38.2866 14.788L38.2506 14.788C38.2506 14.788 38.3226 15.112 38.3226 15.58L38.3226 19.72ZM51.7071 16.336C48.9891 16.336 46.7931 14.32 46.7931 11.548C46.7931 8.794 48.9891 6.796 51.6891 6.796C54.4071 6.796 56.6031 8.794 56.6031 11.548C56.6031 14.32 54.4071 16.336 51.7071 16.336ZM84.2953 16.336C81.4333 16.336 79.4533 14.266 79.4533 11.566C79.4533 8.668 81.4333 6.796 84.0253 6.796C86.5993 6.796 87.9673 8.722 87.9673 11.062C87.9673 11.296 87.9313 11.548 87.8953 11.8L81.2713 11.8C81.3613 13.762 82.7653 14.824 84.4033 14.824C85.3753 14.824 86.3653 14.41 87.0853 13.762L87.8233 15.04C86.9413 15.85 85.5553 16.336 84.2953 16.336ZM94.3148 16.336C91.4528 16.336 89.4728 14.266 89.4728 11.566C89.4728 8.668 91.4528 6.796 94.0448 6.796C96.6188 6.796 97.9868 8.722 97.9868 11.062C97.9868 11.296 97.9508 11.548 97.9148 11.8L91.2908 11.8C91.3808 13.762 92.7848 14.824 94.4228 14.824C95.3948 14.824 96.3848 14.41 97.1048 13.762L97.8428 15.04C96.9608 15.85 95.5748 16.336 94.3148 16.336ZM24.7551 18.28L24.7551 14.68L25.8711 14.68C27.1491 12.934 27.2931 10.09 27.2931 8.686L27.2931 7.012L33.4491 7.012L33.4491 14.68L34.7451 14.68L34.7451 18.28L33.1431 18.28L33.1431 16.12L26.3931 16.12L26.3931 18.28L24.7551 18.28ZM71.0003 16.12L69.2543 16.12L69.2543 7.012L71.0003 7.012L71.0003 10.72L75.6083 10.72L75.6083 7.012L77.3543 7.012L77.3543 16.12L75.6083 16.12L75.6083 12.214L71.0003 12.214L71.0003 16.12ZM83.9893 8.146C82.6393 8.146 81.5773 9.028 81.3253 10.54L86.2033 10.54C86.1493 8.974 85.1773 8.146 83.9893 8.146ZM94.0088 8.146C92.6588 8.146 91.5968 9.028 91.3448 10.54L96.2228 10.54C96.1688 8.974 95.1968 8.146 94.0088 8.146ZM19.1173 8.308C17.3893 8.308 15.9853 9.658 15.9853 11.548C15.9853 13.456 17.3893 14.824 19.1173 14.824C20.8273 14.824 22.2493 13.456 22.2493 11.548C22.2493 9.658 20.8273 8.308 19.1173 8.308ZM51.7071 8.308C49.9791 8.308 48.5751 9.658 48.5751 11.548C48.5751 13.456 49.9791 14.824 51.7071 14.824C53.4171 14.824 54.8391 13.456 54.8391 11.548C54.8391 9.658 53.4171 8.308 51.7071 8.308ZM40.8966 8.326C39.5286 8.326 38.2686 9.298 38.2686 11.602C38.2686 13.222 39.1686 14.824 40.8426 14.824C42.2826 14.824 43.4706 13.654 43.4706 11.584C43.4706 9.604 42.4086 8.326 40.8966 8.326ZM28.9671 8.92C28.9671 10.288 28.8231 12.88 27.6711 14.68L31.7031 14.68L31.7031 8.434L28.9671 8.434L28.9671 8.92ZM62.7754 9.208C61.2274 9.208 60.1294 10.414 60.1294 12.016C60.1294 13.816 61.2994 14.86 62.7034 14.86C64.1434 14.86 65.3134 13.816 65.3134 12.052C65.3134 10.27 64.1434 9.208 62.7754 9.208Z" fill="#087006" fill-opacity="1.000000" fill-rule="evenodd"/>
	<g clip-path="url(#clip54_1154)">
		<path id="Vector" d="M116.502 14.5541L109 6.23392L110.113 5L116.504 12.0878L122.89 5.00586L124 6.23718L117.614 13.3192L117.615 13.3202L116.502 14.5541Z" fill="#087006" fill-opacity="1.000000" fill-rule="evenodd"/>
	</g>
</svg>
