<svg width="100.000000" height="100.000000" viewBox="0 0 100 100" fill="none" xmlns="http://www.w3.org/2000/svg" xmlns:xlink="http://www.w3.org/1999/xlink">
	<desc>
			Created with Pixso.
	</desc>
	<defs>
		<clipPath id="clip16_562">
			<rect id="Frame" width="82.000000" height="100.000000" transform="translate(9.000000 0.000000)" fill="white" fill-opacity="0"/>
		</clipPath>
	</defs>
	<rect id="Frame" width="82.000000" height="100.000000" transform="translate(9.000000 0.000000)" fill="#FFFFFF" fill-opacity="0"/>
	<g clip-path="url(#clip16_562)">
		<path id="Vector" d="M50 17.2C42.3999 17.2 36.2 23.4 36.2 30.9999C36.2 38.5999 42.3999 44.7 50 44.7C57.6 44.7 63.7999 38.5999 63.7999 30.9999C63.7999 23.4 57.6 17.2 50 17.2Z" fill="#FFC82E" fill-opacity="1.000000" fill-rule="nonzero"/>
		<path id="Vector" d="M43.4 99.9999L43.1 98.4999C43.1 98.4999 41.8 91.4999 41.1 87.5999C40.7 85.4999 40 85.4999 39.1 85.5999C38.8 85.5999 38.6 85.5999 38.4 85.5999C37.7 85.4999 31.3 85.6999 28.2 85.9999C25.2 86.1999 21.4 86.4999 20.2 81.4999C19.6 79.1999 20.1 77.8999 20.4 76.9999C20.6 76.2999 20.7 76.1999 20.4 75.5999C19.2 73.0999 19.3 72.0999 19.5 71.1999C19.5 71.0999 19.5 71.0999 19.5 70.9999C19.5 70.9999 19.4 70.6999 19 69.9999C18.6 69.3999 18.6 68.6999 18.6 67.4999C18.6 66.6999 18.6 64.5999 18.3 64.0999C17.7 63.7999 16.2 63.6999 14.9 63.5999C13.7 63.4999 12.5 63.3999 11.4 63.1999C10.1 62.9999 9.50002 62.1999 9.20002 61.6999C8.40002 60.0999 9.30002 58.2 9.50002 57.8999C12.9 51.3999 16.6 43.9999 16.8 42.8999C17 41.8999 16.4 39.9999 16.1 38.9999L16 38.6999L16 38.3999C16 28.3999 18.1 22.3999 24.8 13.8999C37.3 -2.40005 62 -4.30008 78 7.79993C99.1 23.6999 91.2 50.2999 77.9 68.4999C77.4 69.1999 77 69.7999 76.7 70.1999C75 72.7999 75.6 74.3999 76.1 75.8999C76.2 76.2 76.3 76.4999 76.4 76.7999C76.8 78.0999 80.1 86.4999 81.3 89.5999L81.9 91.1999L43.4 99.9999Z" fill="#E0E0E0" fill-opacity="1.000000" fill-rule="nonzero"/>
		<path id="Vector" d="M47.4 22.4999L48 25.7L48.4 27.8L50.5 28.2C51.3999 28.4 52.1 28.5999 52.7 28.9L54.7 29.9999L56.2999 28.4L58.5999 26.0999L59.0999 26.4999L57.5999 29.3L56.5999 31.0999L57.9 32.7C58.5 33.4999 59.1 34.2 59.4 34.9999L60.4 36.9L62.5 36.7L65.7 36.4L65.7999 36.9999L62.7999 38.2L60.7 38.9999L60.7999 41.2C60.7999 41.9 60.7 42.9 60.5 43.8L60.2 45.8L61.7999 46.9L64.3999 48.7L64.2999 48.9999L61.2 47.9L59.2999 47.2L58 48.8C57.3999 49.4999 56.7 50.2 55.9 50.8L54.4 52.0999L54.9 53.9999L55.7 57.0999L55.0999 57.4L53.4 54.5999L52.2 52.4999L49.9 53.2C49.7999 53.2 49.6 53.2 49.5 53.3C49.2999 53.3 49.0999 53.4 48.7999 53.4C48.7 53.4 48.6 53.4 48.5 53.4C48.2 53.4 47.8999 53.4 47.5999 53.4C47.4999 53.4 47.3999 53.4 47.2999 53.4L45.4 53.4999L44.5999 55.2L43.2 57.9999L42.5999 57.8L43.0999 54.5999L43.4 52.4L41.5 51.4C40.7999 50.9999 40.2 50.4 39.5 49.8L38 48.4L36.1 49.3L33.2 50.7L32.9 50.2L35.2999 48.0999L37 46.5999L36.2 44.4999C35.9 43.8 35.7999 42.9 35.6 41.9999L35.2999 39.9999L33.2999 39.4999L30.2 38.7L30.2999 38.0999L33.5 37.9999L35.5 37.9L36.2999 35.9999C36.7 35.0999 37.1 34.3 37.6 33.3L38.5 31.5999L37.3999 29.9999L35.5 27.4L36 26.9L38.5 28.9L40.2 30.2L42 29.0999C42.7 28.7 43.3999 28.4 44.2999 28.2L46.5 27.5999L46.7 25.4L46.9 22.2L47.4 22.4999Z" fill="#80B927" fill-opacity="1.000000" fill-rule="nonzero"/>
		<path id="Vector" d="M49.9 19.2L43.9 19.4999L43.5 25.4C42.3999 25.7 41.2999 26.0999 40.4 26.7L35.7 22.9999L31.2999 27.2L34.7999 31.9999C34.2999 32.9999 33.7 33.9999 33.2999 34.9999L27.4 35.2L26.7 41.2L32.3999 42.7C32.5999 43.8 32.7 44.9 33.2 45.9L28.7 49.8L32 54.8L37.2999 52.2C38.0999 52.9 39 53.7 39.8999 54.2L39.2 59.9999L44.9 61.7L47.5 56.4C47.6 56.4 47.6 56.4 47.7 56.4C48.2 56.4 48.6 56.4999 49 56.4999C49.1 56.4999 49.1 56.4999 49.2 56.4999C49.7 56.3 50.2999 56.3 50.7999 56.2L53.9 61.3L59.5 58.9L58 53.2C58.7999 52.4999 59.7 51.7 60.4 50.9L65.8999 52.8L68.7 47.7L63.7999 44.3C64 43.3 64.2 42.0999 64.0999 40.9999L69.5999 38.8L68.2 32.9L62.4 33.4999C61.9 32.4 61.2 31.4999 60.5 30.7L63.2999 25.5999L58.4999 21.9999L54.2999 26.2C53.2999 25.7 52.2999 25.4 51.0999 25.2L49.9 19.2Z" fill="#80BF1D" fill-opacity="1.000000" fill-rule="nonzero"/>
		<path id="Vector" d="M73.2 9.5L72 12C71.5 12 70.9 12 70.4 12.1L69 9.70001L66.4 10.8L67.1 13.6C66.7 13.9 66.3 14.2 65.9 14.6L63.3 13.6L62 16.1L64.3 17.7C64.2 18.3 64.1 18.8 64.1 19.3L61.5 20.2L62.1 23.1L65 22.9C65.2 23.4 65.5 23.9 65.8 24.3L64.4 26.7L66.6 28.5L68.6 26.6C69.1 26.8 69.6 27 70.1 27.1L70.6 30L73.5 29.9L73.8 27C74.3 26.9 74.8 26.7 75.4 26.4L77.5 28.2L79.6 26.3L78 24C78.1 23.8 78.3 23.6 78.4 23.4C78.5 23.2 78.6 22.9 78.7 22.7L81.6 22.7L82 19.8L79.2 19C79.2 18.4 79.1 17.9 78.9 17.4L80.9 15.6L79.4 13.2L76.8 14.3C76.5 13.9 76.1 13.6 75.6 13.3L76.1 10.4L73.2 9.5Z" fill="#4EA015" fill-opacity="1.000000" fill-rule="nonzero"/>
		<path id="Vector" d="M48.0999 34.7C51.3999 34.7 54 37.3 54 40.5999C54 43.9 51.3999 46.4999 48.0999 46.4999C44.7999 46.4999 42.2 43.9 42.2 40.5999C42.2 37.3 44.8999 34.7 48.0999 34.7Z" fill="#1981C4" fill-opacity="1.000000" fill-rule="nonzero"/>
		<path id="Vector" d="M48.1 31.6C43.1 31.6 39.1 35.6 39.1 40.6C39.1 45.6 43.1 49.6 48.1 49.6C53.1 49.6 57.1 45.6 57.1 40.6C57.1 35.7 53.1 31.6 48.1 31.6Z" fill="#087006" fill-opacity="1.000000" fill-rule="nonzero"/>
		<path id="Vector" d="M72.6 15.1L73.9 15.9C74.2 16.1 74.2 16.1 74.2 16.1L75.7 18L75.8 18L76 18.5C76.1 18.6 76.1 18.8 76.1 19L76.1 21L75.9 21.4C75.8 21.6 75.7 21.8 75.6 22C75.5 22.2 75.3 22.4 75.2 22.7L74.9 23.3L73.9 23.8C73.5 24 73.2 24.1 73 24.1L71.5 24.4L70.5 24.2C70.3 24.2 69.9 24 69.5 23.9L68.7 23.6L67.9 22.6C67.7 22.4 67.6 22.1 67.5 21.9L66.9 20.4L66.9 19.5C66.9 19.3 67 19 67 18.7L67 18.4L67.1 17.5L67.7 16.9C68 16.6 68.2 16.4 68.6 16.2L69.4 15.6L70.7 15.3C70.9 15.3 71.4 15.3 71.7 15.3L72.6 15.3L72.6 15.1Z" fill="#8CC63F" fill-opacity="1.000000" fill-rule="nonzero"/>
	</g>
</svg>
