<svg width="100.000000" height="100.000000" viewBox="0 0 100 100" fill="none" xmlns="http://www.w3.org/2000/svg" xmlns:xlink="http://www.w3.org/1999/xlink">
	<desc>
			Created with Pixso.
	</desc>
	<defs>
		<clipPath id="clip16_529">
			<rect id="Frame" width="75.000000" height="100.000000" transform="translate(13.000000 0.000000)" fill="white" fill-opacity="0"/>
		</clipPath>
	</defs>
	<rect id="Frame" width="75.000000" height="100.000000" transform="translate(13.000000 0.000000)" fill="#FFFFFF" fill-opacity="0"/>
	<g clip-path="url(#clip16_529)">
		<path id="Vector" d="M88 62.5C88 83.2107 71.2107 100 50.5 100C29.7893 100 13 83.2107 13 62.5C13 41.7893 29.7893 25 50.5 25C71.2107 25 88 41.7893 88 62.5Z" fill="#E0E0E0" fill-opacity="1.000000" fill-rule="evenodd"/>
		<path id="Vector" d="M51.6 0.700027L56.8 11.8C57 12.2 57.3 12.4 57.7 12.4L69.8 14C70.8 14.1 71.1 15.3 70.4 16L61.5 24.4C61.2 24.7 61.1 25.1 61.2 25.4L63.5 37.4C63.7 38.4 62.7 39.1 61.8 38.6L51.1 32.7C50.8 32.5 50.3 32.5 50 32.7L39.3 38.6C38.5 39.1 37.4 38.3 37.6 37.4L39.9 25.4C40 25 39.8 24.6 39.6 24.4L30.7 16C30 15.3 30.4 14.2 31.3 14L43.4 12.4C43.8 12.4 44.1 12.1 44.3 11.8L49.5 0.700027C49.9 -0.199982 51.1 -0.199982 51.6 0.700027Z" fill="#80BF1D" fill-opacity="1.000000" fill-rule="nonzero"/>
		<path id="Vector" d="M33.8999 70C33.5 69.6 33.2 69 33.2 68.4C33.2 67.8 33.3999 67.3 33.8999 66.8L44.5 56.1L47.5999 59.2L37 70C36.1 70.9 34.7 70.9 33.8999 70Z" fill="#4EA015" fill-opacity="1.000000" fill-rule="nonzero"/>
		<path id="Vector" d="M27.5 58.3C27.5 54.8 28.8 51.6001 31.3 49.1001C33.8 46.6001 37 45.3 40.4 45.3C43.8 45.3 47.1 46.6001 49.5 49.1001L54.9 54.6001C56 55.7001 56 57.6001 54.9 58.8C53.8 59.9 51.9 59.9 50.7 58.8L50.3 58.4001L45.3 53.3L41.5 49.5C41 49.0001 40.1 49.0001 39.6 49.5C39.1 50 39.1 50.9001 39.6 51.4001L42.4 54.2001L32 64.9001C31.5 65.4001 31 66.1001 30.8 66.8C28.7 64.4001 27.5 61.5 27.5 58.3Z" fill="#087006" fill-opacity="1.000000" fill-rule="nonzero"/>
		<path id="Vector" d="M48.9001 85.3C48.2001 84.6 48.1001 83.4 48.5 82.6C48.7001 82.5 48.9 82.3 49 82.2L60.6 70.5C61.1 70 61.1 69.1 60.6 68.6C60.1 68.1 59.2001 68.1 58.7001 68.6L47.5 79.7C47.3 79.8 47.1001 79.9 46.9001 80.1C46.7001 80.3 46.6001 80.5 46.4001 80.6C45.6001 81 44.5 80.9 43.8 80.2C43.4 79.8 43.1001 79.2 43.1001 78.6C43.1001 78 43.3 77.5 43.8 77L55.4001 65.3C55.9001 64.8 55.9001 63.9 55.4001 63.4C54.9001 62.9 54 62.9 53.5 63.4L42 75.1C41.2001 75.9 39.7001 75.9 38.9 75.1C38.1 74.3 38.1 72.8 38.9 72L49.6 61.2C50.6 62 51.8 62.3 53 62.3C54.4 62.3 55.9 61.8 57 60.6C59.2001 58.4 59.2001 54.8 57 52.5L52.5 48C54.8 46.1 57.6 45.1 60.6 45.1C64.1001 45.1 67.3 46.4 69.7001 48.9C72.1001 51.4 73.5 54.6 73.5 58.1C73.5 61.5 72.2001 64.8 69.8 67.2L69.7001 67.3L52.1 85.3C52 85.4 52.0001 85.5 51.9001 85.5C51.0001 86.2 49.7001 86 48.9001 85.3Z" fill="#4EA015" fill-opacity="1.000000" fill-rule="nonzero"/>
	</g>
</svg>
