<svg width="100.000000" height="100.000000" viewBox="0 0 100 100" fill="none" xmlns="http://www.w3.org/2000/svg" xmlns:xlink="http://www.w3.org/1999/xlink">
	<desc>
			Created with Pixso.
	</desc>
	<defs>
		<clipPath id="clip16_524">
			<rect id="Frame" width="65.400002" height="89.000000" transform="translate(17.000000 5.000000)" fill="white" fill-opacity="0"/>
		</clipPath>
	</defs>
	<rect id="Frame" width="65.400002" height="89.000000" transform="translate(17.000000 5.000000)" fill="#FFFFFF" fill-opacity="0"/>
	<g clip-path="url(#clip16_524)">
		<path id="Vector" d="M57.2 86L49.7 79.3L42.1 86L42.1 72.2L44.8 72.2L54.5 72.2L57.2 72.2L57.2 86Z" fill="#80BF1D" fill-opacity="1.000000" fill-rule="nonzero"/>
		<path id="Vector" d="M81.9 21.8L81.9 21.7L68.2 5.70001L67.9 5.70001L67.9 21.8L81.9 21.8Z" fill="#868686" fill-opacity="1.000000" fill-rule="nonzero"/>
		<path id="Vector" d="M69.2 16.9L69.2 8.3C69.2 6.5 67.7 5 65.9 5L20.3 5C18.5 5 17 6.5 17 8.3L17 90.7C17 92.5 18.5 94 20.3 94L79.2 94C81 94 82.5 92.5 82.5 90.7L82.5 23.5C82.5 21.7 81 20.2 79.2 20.2L72.5 20.2C70.6 20.2 69.2 18.7 69.2 16.9Z" fill="#E0E0E0" fill-opacity="1.000000" fill-rule="nonzero"/>
		<path id="Vector" d="M31.8 35.6L67.5 35.6L67.5 38.3L31.8 38.3L31.8 35.6Z" fill="#868686" fill-opacity="1.000000" fill-rule="evenodd"/>
		<path id="Vector" d="M37.8 42.8L61.5 42.8L61.5 45.5L37.8 45.5L37.8 42.8Z" fill="#868686" fill-opacity="1.000000" fill-rule="evenodd"/>
		<path id="Vector" d="M33.7 48.1L65.6 48.1L65.6 50.8L33.7 50.8L33.7 48.1Z" fill="#868686" fill-opacity="1.000000" fill-rule="evenodd"/>
		<path id="Vector" d="M49.7 76.1C44.2 76.1 39.7 71.7 39.7 66.3C39.7 60.9 44.2 56.5 49.7 56.5C55.2 56.5 59.7 60.9 59.7 66.3C59.7 71.7 55.2 76.1 49.7 76.1Z" fill="#087006" fill-opacity="1.000000" fill-rule="nonzero"/>
		<path id="Vector" d="M49.7 76.3C44.2 76.3 39.7 71.8999 39.7 66.5C39.7 61.1 44.2 56.7 49.7 56.7C55.2 56.7 59.7 61.1 59.7 66.5C59.7 71.8999 55.2 76.3 49.7 76.3ZM49.7 59.2999C45.6 59.2999 42.4 62.5 42.4 66.5C42.4 70.5 45.7 73.7 49.7 73.7C53.7 73.7 57 70.5 57 66.5C57 62.5 53.7 59.2999 49.7 59.2999Z" fill="#80BF1D" fill-opacity="1.000000" fill-rule="nonzero"/>
		<path id="Vector" d="M38.3 24.1C40.9999 28.5 47.9999 29 47.9999 29C47.9999 29 50.7 22.5 47.9999 18.2C45.3 13.9 38.3 13.3 38.3 13.3C38.3 13.3 35.7 19.8 38.3 24.1Z" fill="#4EA015" fill-opacity="1.000000" fill-rule="nonzero"/>
		<path id="Vector" d="M49.4 20.9C46.8 23.7 47.9 28.9 47.9 28.9C47.9 28.9 53.2 29.5 55.8 26.7C58.4 23.9 57.3 18.7 57.3 18.7C57.3 18.7 52 18.1 49.4 20.9Z" fill="#80BF1D" fill-opacity="1.000000" fill-rule="nonzero"/>
	</g>
</svg>
