<svg width="18.000000" height="20.000000" viewBox="0 0 18 20" fill="none" xmlns="http://www.w3.org/2000/svg" xmlns:xlink="http://www.w3.org/1999/xlink">
	<desc>
			Created with Pixso.
	</desc>
	<defs/>
	<path id="Vector" d="M9 20L8.71233 19.7062C8.42465 19.4124 2 11.9691 2 8.14954C2 4.23193 5.16438 1 9 1C12.8356 1 16 4.23193 16 8.14954C16 11.9691 9.57535 19.4124 9.28767 19.7062L9 20ZM9 1.78345C5.54794 1.78345 2.76712 4.62366 2.76712 8.14954C2.76712 11.2834 7.84932 17.4536 9 18.9227C10.2466 17.4536 15.2329 11.2834 15.2329 8.14954C15.3288 4.62366 12.4521 1.78345 9 1.78345ZM9 11.8711C7.08218 11.8711 5.54794 10.3041 5.54794 8.34534C5.54794 6.3866 7.08218 4.81958 9 4.81958C10.9178 4.81958 12.4521 6.3866 12.4521 8.34534C12.4521 10.3041 10.9178 11.8711 9 11.8711ZM9 5.50513C7.46576 5.50513 6.21918 6.77832 6.21918 8.34534C6.21918 9.91235 7.46576 11.1855 9 11.1855C10.5342 11.1855 11.7808 9.91235 11.7808 8.34534C11.7808 6.77832 10.5342 5.50513 9 5.50513Z" fill="#1D1D1B" fill-opacity="1.000000" fill-rule="nonzero"/>
</svg>
