<svg width="18.000000" height="20.000000" viewBox="0 0 18 20" fill="none" xmlns="http://www.w3.org/2000/svg" xmlns:xlink="http://www.w3.org/1999/xlink">
	<desc>
			Created with Pixso.
	</desc>
	<defs/>
	<path id="Vector" d="M5.45454 19C5.45454 19 4.58182 19 3.59999 18.6842C1.30908 17.9474 0 16.2632 0 13.9474C0 9.52637 3.60001 5.94739 3.70909 5.73682L4.6909 4.78943C4.79999 4.6842 8.50909 1 12.8727 1C15.2727 1 16.9091 2.26318 17.6727 4.57898C18 5.52637 18 6.36841 18 6.36841C18 7.21057 17.3455 8.05261 16.5818 8.36841L13.5273 9.42102C13.0909 9.63159 12.5455 9.52637 12.1091 9.3158C11.6727 9.10522 11.3454 8.6842 11.2364 8.15784C11.2364 8.15784 11.1273 7.63159 10.9091 7.10522C10.8 7.10522 9.92726 6.89478 7.96364 8.78943C6 10.6842 6.21819 11.6316 6.21819 11.7368C6.21819 11.8422 6.21819 11.8422 6.21819 11.8422C6.65454 12.0526 7.2 12.1578 7.2 12.1578C7.74545 12.2632 8.07272 12.579 8.29091 13C8.50909 13.421 8.61818 13.9474 8.39999 14.3684L7.41818 17.5264C7.2 18.3684 6.32727 19 5.45454 19ZM13.0909 1.73682C9.05455 1.73682 5.67273 5.21057 5.45454 5.3158L4.47273 6.26318C4.36363 6.36841 0.981812 9.84216 0.981812 13.9474C0.981812 15.9474 2.07272 17.421 3.92728 17.9474C4.8 18.2632 5.45454 18.2632 5.45454 18.2632C6 18.2632 6.54546 17.8422 6.65454 17.3158L7.63637 14.1578C7.74545 13.8422 7.74545 13.6316 7.52727 13.3158C7.41818 13.1052 7.2 12.8948 6.87273 12.7894C6.87273 12.7894 6.32727 12.6842 5.78181 12.4736C5.56363 12.3684 5.34544 12.1578 5.23636 11.8422C5.12727 11.421 5.12727 10.2632 7.2 8.15784C9.27272 6.05261 10.3636 6.05261 10.8 6.15784C11.2364 6.26318 11.4545 6.57898 11.4545 6.6842C11.6727 7.21057 11.7818 7.73682 11.7818 7.84216C11.8909 8.15784 12 8.36841 12.3273 8.47363C12.5455 8.57898 12.8727 8.57898 13.0909 8.57898L16.1454 7.52637C16.6909 7.3158 17.0182 6.78943 17.0182 6.26318C17.0182 6.26318 17.0182 5.52637 16.8 4.6842C16.8 3.73511 15.2334 1.73682 13.0909 1.73682Z" fill="#1D1D1B" fill-opacity="1.000000" fill-rule="nonzero"/>
</svg>
