<svg width="155.834473" height="44.607971" viewBox="0 0 155.834 44.608" fill="none" xmlns="http://www.w3.org/2000/svg" xmlns:xlink="http://www.w3.org/1999/xlink">
	<desc>
			Created with Pixso.
	</desc>
	<defs/>
	<path id="100%" d="M56.55 37.8983Q61.2285 31.9601 61.2285 22.336Q61.2285 12.5732 56.4688 6.60852Q55.7369 5.69135 54.8925 4.86401Q52.334 2.33875 49.258 1.12451Q46.4092 0 43.1165 0Q39.824 0 36.9753 1.12439L36.975 1.12451Q33.899 2.33875 31.3405 4.86401Q30.4961 5.69135 29.7642 6.60858Q25.0045 12.5732 25.0045 22.336Q25.0045 31.9602 29.683 37.8983Q30.449 38.8705 31.3405 39.744Q33.899 42.2693 36.975 43.4835L36.9751 43.4835Q39.8239 44.608 43.1165 44.608Q46.4092 44.608 49.258 43.4835Q52.334 42.2693 54.8925 39.744Q55.7839 38.8706 56.5499 37.8984L56.55 37.8983ZM99.6035 22.336Q99.6035 31.9602 94.925 37.8983L94.9249 37.8984Q94.1589 38.8706 93.2675 39.744C89.9822 42.9867 86.0568 44.608 81.4915 44.608C76.9261 44.608 73.0009 42.9867 69.7155 39.744Q68.824 38.8705 68.058 37.8983Q63.3795 31.9601 63.3795 22.336Q63.3795 12.5732 68.1392 6.60858Q68.8711 5.69141 69.7155 4.86401C73.0009 1.62134 76.9261 0 81.4915 0C86.0568 0 89.9822 1.62134 93.2675 4.86401Q94.1119 5.69135 94.8438 6.60852Q99.6035 12.5732 99.6035 22.336ZM105.466 18.048C107.643 20.3093 110.608 21.44 114.362 21.44Q119.032 21.44 122.061 19.2111Q122.768 18.6904 123.386 18.048C125.221 16.128 126.138 13.76 126.138 10.944C126.138 8.12799 125.242 5.78131 123.451 3.90399C121.274 1.64264 118.245 0.512024 114.362 0.512024Q109.192 0.512024 106.244 3.07135Q105.798 3.45837 105.402 3.90399C103.653 5.78131 102.779 8.19202 102.779 11.136C102.779 13.824 103.674 16.128 105.466 18.048ZM6.08002 10.368L6.08002 43.648L17.152 43.648L17.152 0.960022L0 0.960022L0 10.368L6.08002 10.368ZM138.875 0.960022L114.171 43.648L119.674 43.648L144.443 0.960022L138.875 0.960022ZM110.971 7.61603C111.867 6.63464 113.04 6.14398 114.49 6.14398C115.813 6.14398 116.901 6.54932 117.755 7.35999C118.779 8.34131 119.291 9.53601 119.291 10.944C119.291 12.3093 118.821 13.4614 117.883 14.4C116.901 15.296 115.771 15.744 114.49 15.744Q113.294 15.744 112.338 15.2656Q111.81 15.0016 111.354 14.592C110.245 13.6107 109.69 12.3947 109.69 10.944Q109.69 9.95093 110.033 9.09479Q110.353 8.29572 110.971 7.61603ZM43.1165 9.91998C44.3965 9.91998 45.5272 10.368 46.5085 11.264C47.5752 12.2027 48.4498 13.8027 49.1325 16.064Q50.2205 19.456 50.2205 22.464C50.2205 24.4694 49.8792 26.5814 49.1965 28.8Q48.1725 32.064 46.5085 33.536C45.5272 34.432 44.3965 34.88 43.1165 34.88C41.8365 34.88 40.7058 34.432 39.7245 33.536C38.5725 32.512 37.6552 30.8907 36.9725 28.672Q36.0125 25.28 36.0125 22.4C36.0125 20.3093 36.3538 18.176 37.0365 16Q38.0605 12.672 39.7245 11.264C40.7058 10.368 41.8365 9.91998 43.1165 9.91998ZM84.8835 11.264C83.9022 10.368 82.7715 9.91998 81.4915 9.91998C80.2115 9.91998 79.0808 10.368 78.0995 11.264C76.9902 12.2027 76.0942 13.7813 75.4115 16C74.7288 18.176 74.3875 20.3093 74.3875 22.4C74.3875 24.32 74.7075 26.4106 75.3475 28.672C76.0302 30.8907 76.9475 32.512 78.0995 33.536C79.0808 34.432 80.2115 34.88 81.4915 34.88C82.7715 34.88 83.9022 34.432 84.8835 33.536C85.9928 32.5547 86.8889 30.976 87.5715 28.8Q88.5955 25.472 88.5955 22.464C88.5955 20.4587 88.2328 18.3253 87.5075 16.064C86.8248 13.8027 85.9502 12.2027 84.8835 11.264ZM136.718 42.0999Q139.669 44.16 144.058 44.16C147.898 44.16 150.906 43.0294 153.083 40.768C154.917 38.848 155.834 36.48 155.834 33.664C155.834 30.848 154.938 28.5013 153.146 26.624C150.971 24.3627 147.941 23.232 144.058 23.232C140.091 23.232 137.104 24.3627 135.099 26.624Q134.437 27.3335 133.943 28.1445Q132.474 30.5526 132.474 33.856C132.474 36.544 133.37 38.848 135.162 40.768Q135.883 41.5165 136.718 42.0999ZM140.667 30.336C141.562 29.3547 142.736 28.864 144.187 28.864C145.509 28.864 146.597 29.2693 147.451 30.08C148.474 31.0187 148.987 32.2133 148.987 33.664C148.987 35.0294 148.517 36.1813 147.578 37.12C146.597 38.016 145.466 38.464 144.187 38.464C142.949 38.464 141.904 38.08 141.051 37.312C139.941 36.3307 139.386 35.1147 139.386 33.664Q139.386 32.6709 139.729 31.8148Q140.049 31.0157 140.667 30.336Z" fill="#086F02" fill-opacity="1.000000" fill-rule="evenodd"/>
</svg>
