<svg width="282.000000" height="35.000000" viewBox="0 0 282 35" fill="none" xmlns="http://www.w3.org/2000/svg" xmlns:xlink="http://www.w3.org/1999/xlink">
	<desc>
			Created with Pixso.
	</desc>
	<defs>
		<clipPath id="clip9_1335">
			<rect id="logo" width="282.000000" height="35.000000" fill="white" fill-opacity="0"/>
		</clipPath>
	</defs>
	<rect id="logo" width="282.000000" height="35.000000" fill="#FFFFFF" fill-opacity="0"/>
	<g clip-path="url(#clip9_1335)">
		<path id="Vector" d="M167.261 16.4637L166.157 16.4637L166.157 9.21045L161.003 9.21045L161.003 16.4637L159.898 16.4637L159.898 8.28943L167.384 8.28943L167.384 16.4637L167.261 16.4637Z" fill="#1D1D1B" fill-opacity="1.000000" fill-rule="nonzero"/>
		<path id="Vector" d="M170.943 15.5427L170.943 19.4572L169.838 19.4572L169.838 9.90125L170.943 9.90125L170.943 11.0526C171.433 10.1315 172.292 9.78613 173.397 9.78613C174.256 9.78613 174.992 10.1315 175.483 10.7072C175.974 11.2828 176.219 12.0887 176.219 13.125C176.219 14.2762 175.974 15.0822 175.36 15.7729C174.747 16.4637 174.01 16.8092 173.029 16.8092C172.17 16.5789 171.433 16.2335 170.943 15.5427ZM170.943 12.8947L170.943 13.8158C170.943 14.3914 171.188 14.8519 171.556 15.1973C171.924 15.5427 172.415 15.7729 173.029 15.7729C173.765 15.7729 174.256 15.5427 174.624 15.0822C174.992 14.6217 175.238 13.9309 175.238 13.0098C175.238 12.319 175.115 11.7434 174.747 11.2828C174.379 10.8223 173.888 10.7072 173.274 10.7072C172.661 10.7072 172.047 10.9375 171.679 11.3979C171.188 11.7434 170.943 12.2039 170.943 12.8947Z" fill="#1D1D1B" fill-opacity="1.000000" fill-rule="nonzero"/>
		<path id="Vector" d="M181.251 16.5789C180.269 16.5789 179.41 16.2335 178.796 15.6578C178.183 15.0822 177.815 14.2762 177.815 13.2401C177.815 12.0887 178.183 11.2828 178.796 10.7072C179.41 10.1315 180.269 9.78613 181.373 9.78613C182.355 9.78613 183.214 10.1315 183.828 10.7072C184.441 11.2828 184.687 12.0887 184.687 13.2401C184.687 14.2762 184.319 15.0822 183.705 15.7729C183.091 16.3486 182.355 16.5789 181.251 16.5789ZM181.373 10.592C180.637 10.592 180.146 10.8223 179.655 11.2828C179.287 11.7434 179.042 12.319 179.042 13.2401C179.042 14.046 179.287 14.6217 179.655 15.0822C180.023 15.5427 180.637 15.7729 181.373 15.7729C182.11 15.7729 182.601 15.5427 183.091 15.0822C183.46 14.6217 183.705 14.046 183.705 13.2401C183.705 12.4342 183.46 11.7434 183.091 11.3979C182.601 10.8223 181.987 10.592 181.373 10.592Z" fill="#1D1D1B" fill-opacity="1.000000" fill-rule="nonzero"/>
		<path id="Vector" d="M192.663 16.4639L191.681 16.4639L191.681 11.283C191.559 11.5132 191.436 11.7435 191.191 12.0889L188 16.579L186.896 16.579L186.896 9.90137L187.877 9.90137L187.877 15.0823C187.877 14.9672 188 14.7369 188.245 14.3915L191.559 9.90137L192.663 9.90137L192.663 16.4639Z" fill="#1D1D1B" fill-opacity="1.000000" fill-rule="nonzero"/>
		<path id="Vector" d="M194.504 16.2335L194.504 15.1973C195.117 15.5427 195.854 15.6578 196.59 15.6578C197.817 15.6578 198.431 15.3125 198.431 14.5065C198.431 13.8158 197.694 13.4703 196.345 13.4703L195.608 13.4703L195.608 12.6644L196.222 12.6644C197.449 12.6644 198.063 12.319 198.063 11.6283C198.063 11.2828 197.94 11.0526 197.694 10.9375C197.449 10.8223 197.081 10.7072 196.59 10.7072C195.854 10.7072 195.24 10.8223 194.504 11.1677L194.504 10.1315C195.24 9.90125 195.976 9.78613 196.59 9.78613C198.308 9.78613 199.167 10.3618 199.167 11.5131C199.167 11.8585 199.044 12.2039 198.799 12.5493C198.553 12.8947 198.185 13.0098 197.694 13.125C198.185 13.125 198.676 13.3552 198.922 13.5854C199.167 13.8158 199.412 14.2762 199.412 14.7368C199.412 15.3125 199.167 15.7729 198.676 16.1184C198.185 16.4637 197.449 16.694 196.59 16.694C195.731 16.5789 194.995 16.4637 194.504 16.2335Z" fill="#1D1D1B" fill-opacity="1.000000" fill-rule="nonzero"/>
		<path id="Vector" d="M201.621 16.4639L201.621 9.90137L204.689 9.90137C205.426 9.90137 205.916 10.0165 206.285 10.3619C206.653 10.5922 206.898 11.0527 206.898 11.5132C206.898 12.3191 206.407 12.8948 205.548 13.0099C206.653 13.125 207.144 13.7007 207.144 14.5066C207.144 15.0823 206.898 15.5428 206.53 15.8882C206.039 16.2336 205.548 16.4639 204.935 16.4639L201.621 16.4639ZM202.726 10.8224L202.726 12.6646L204.444 12.6646C205.303 12.6646 205.794 12.3191 205.794 11.6283C205.794 11.0527 205.426 10.8224 204.567 10.8224L202.726 10.8224ZM202.726 13.5856L202.726 15.658L204.689 15.658C205.548 15.658 206.039 15.3125 206.039 14.6217C206.039 13.931 205.548 13.5856 204.567 13.5856L202.726 13.5856Z" fill="#1D1D1B" fill-opacity="1.000000" fill-rule="nonzero"/>
		<path id="Vector" d="M212.175 16.5789C211.193 16.5789 210.334 16.2335 209.721 15.6578C209.107 15.0822 208.739 14.2762 208.739 13.2401C208.739 12.0887 209.107 11.2828 209.721 10.7072C210.334 10.1315 211.193 9.78613 212.298 9.78613C213.279 9.78613 214.138 10.1315 214.752 10.7072C215.366 11.2828 215.611 12.0887 215.611 13.2401C215.611 14.2762 215.243 15.0822 214.629 15.7729C214.016 16.3486 213.279 16.5789 212.175 16.5789ZM212.298 10.592C211.561 10.592 211.07 10.8223 210.58 11.2828C210.089 11.7434 209.966 12.319 209.966 13.2401C209.966 14.046 210.211 14.6217 210.58 15.0822C210.948 15.5427 211.561 15.7729 212.298 15.7729C213.034 15.7729 213.525 15.5427 214.016 15.0822C214.384 14.6217 214.629 14.046 214.629 13.2401C214.629 12.4342 214.384 11.7434 214.016 11.3979C213.525 10.8223 212.911 10.592 212.298 10.592Z" fill="#1D1D1B" fill-opacity="1.000000" fill-rule="nonzero"/>
		<path id="Vector" d="M223.587 18.8816L222.606 18.8816L222.606 16.4639L217.452 16.4639L217.452 18.8816L216.47 18.8816L216.47 15.5428L217.084 15.5428C218.311 13.931 218.924 12.0889 218.924 9.90137L222.606 9.90137L222.606 15.5428L223.587 15.5428L223.587 18.8816ZM221.501 15.5428L221.501 10.8224L219.906 10.8224C219.783 12.5494 219.292 14.1613 218.311 15.658L221.501 15.658L221.501 15.5428Z" fill="#1D1D1B" fill-opacity="1.000000" fill-rule="nonzero"/>
		<path id="Vector" d="M230.214 16.1184C229.723 16.4637 228.987 16.579 228.251 16.579C227.269 16.579 226.41 16.2335 225.796 15.6578C225.183 15.0823 224.937 14.2762 224.937 13.2401C224.937 12.204 225.305 11.2828 225.919 10.592C226.533 9.90125 227.514 9.55591 228.619 9.55591C229.232 9.55591 229.723 9.67102 230.214 9.90125L230.214 10.9375C229.723 10.592 229.11 10.4769 228.496 10.4769C227.76 10.4769 227.146 10.7073 226.778 11.1677C226.287 11.6283 226.042 12.3191 226.042 13.0099C226.042 13.8158 226.287 14.3915 226.655 14.8519C227.146 15.3125 227.637 15.5427 228.373 15.5427C228.987 15.5427 229.6 15.3125 230.091 14.967L230.091 16.1184L230.214 16.1184Z" fill="#1D1D1B" fill-opacity="1.000000" fill-rule="nonzero"/>
		<path id="Vector" d="M236.473 10.8224L234.386 10.8224L234.386 16.4639L233.282 16.4639L233.282 10.8224L231.196 10.8224L231.196 9.90137L236.473 9.90137L236.473 10.8224Z" fill="#1D1D1B" fill-opacity="1.000000" fill-rule="nonzero"/>
		<path id="Vector" d="M238.068 16.4639L238.068 9.90137L241.136 9.90137C241.872 9.90137 242.363 10.0165 242.731 10.3619C243.099 10.5922 243.345 11.0527 243.345 11.5132C243.345 12.3191 242.854 12.8948 241.995 13.0099C243.099 13.125 243.59 13.7007 243.59 14.5066C243.59 15.0823 243.345 15.5428 242.977 15.8882C242.608 16.2336 241.995 16.4639 241.381 16.4639L238.068 16.4639ZM239.172 10.8224L239.172 12.6646L240.89 12.6646C241.749 12.6646 242.24 12.3191 242.24 11.6283C242.24 11.0527 241.872 10.8224 241.013 10.8224L239.172 10.8224ZM239.172 13.5856L239.172 15.658L241.136 15.658C241.995 15.658 242.486 15.3125 242.486 14.6217C242.486 13.931 241.995 13.5856 241.013 13.5856L239.172 13.5856Z" fill="#1D1D1B" fill-opacity="1.000000" fill-rule="nonzero"/>
		<path id="Vector" d="M251.321 13.4703L246.412 13.4703C246.412 14.1611 246.658 14.7368 247.026 15.1973C247.394 15.5427 248.008 15.7729 248.621 15.7729C249.358 15.7729 250.094 15.5427 250.83 15.0822L250.83 16.1184C250.217 16.5789 249.358 16.694 248.376 16.694C247.394 16.694 246.658 16.3486 246.044 15.7729C245.431 15.1973 245.185 14.3914 245.185 13.2401C245.185 12.2039 245.553 11.3979 246.167 10.7072C246.781 10.0164 247.517 9.78613 248.499 9.78613C249.358 9.78613 250.094 10.0164 250.585 10.592C251.076 11.1677 251.321 11.9736 251.321 12.8947L251.321 13.4703ZM250.217 12.5493C250.217 11.9736 250.094 11.5131 249.726 11.1677C249.358 10.8223 248.99 10.7072 248.499 10.7072C248.008 10.7072 247.517 10.9375 247.149 11.2828C246.781 11.6283 246.535 12.0887 246.412 12.6644L250.217 12.6644L250.217 12.5493Z" fill="#1D1D1B" fill-opacity="1.000000" fill-rule="nonzero"/>
		<path id="Vector" d="M259.052 16.4639L257.948 16.4639L257.948 13.4705L254.389 13.4705L254.389 16.4639L253.285 16.4639L253.285 9.90137L254.389 9.90137L254.389 12.5494L257.948 12.5494L257.948 9.90137L259.052 9.90137L259.052 16.4639Z" fill="#1D1D1B" fill-opacity="1.000000" fill-rule="nonzero"/>
		<path id="Vector" d="M267.397 16.4639L266.292 16.4639L266.292 13.4705L262.734 13.4705L262.734 16.4639L261.629 16.4639L261.629 9.90137L262.734 9.90137L262.734 12.5494L266.292 12.5494L266.292 9.90137L267.397 9.90137L267.397 16.4639Z" fill="#1D1D1B" fill-opacity="1.000000" fill-rule="nonzero"/>
		<path id="Vector" d="M274.883 16.4637L273.778 16.4637L273.778 15.4276C273.287 16.2335 272.551 16.5789 271.569 16.5789C270.833 16.5789 270.342 16.3486 269.974 16.0033C269.606 15.6578 269.36 15.1973 269.36 14.6217C269.36 13.3552 270.097 12.6644 271.692 12.4342L273.778 12.2039C273.778 11.0526 273.287 10.4769 272.305 10.4769C271.447 10.4769 270.71 10.7072 269.974 11.2828L269.974 10.3618C270.71 9.90125 271.447 9.78613 272.305 9.78613C273.901 9.78613 274.76 10.592 274.76 12.2039L274.76 16.4637L274.883 16.4637ZM273.778 13.125L272.06 13.3552C271.569 13.4703 271.201 13.5854 270.833 13.7006C270.587 13.9309 270.465 14.1611 270.465 14.6217C270.465 14.967 270.587 15.1973 270.833 15.4276C271.078 15.6578 271.447 15.7729 271.815 15.7729C272.428 15.7729 272.796 15.5427 273.165 15.1973C273.533 14.8519 273.655 14.3914 273.655 13.8158L273.655 13.125L273.778 13.125Z" fill="#1D1D1B" fill-opacity="1.000000" fill-rule="nonzero"/>
		<path id="Vector" d="M282 16.4639L280.896 16.4639L280.896 13.7007L279.914 13.7007C279.423 13.7007 279.055 14.0461 278.687 14.7369L277.828 16.4639L276.478 16.4639L277.705 14.3915C277.95 13.931 278.319 13.5856 278.687 13.4705C278.196 13.3553 277.705 13.2402 277.46 12.8948C277.214 12.5494 276.969 12.204 276.969 11.7435C276.969 11.1678 277.214 10.7073 277.582 10.3619C278.073 10.0165 278.687 9.90137 279.423 9.90137L281.877 9.90137L281.877 16.4639L282 16.4639ZM280.896 12.8948L280.896 10.8224L279.546 10.8224C278.564 10.8224 278.073 11.1678 278.073 11.8586C278.073 12.5494 278.564 12.8948 279.423 12.8948L280.896 12.8948Z" fill="#1D1D1B" fill-opacity="1.000000" fill-rule="nonzero"/>
		<path id="Vector" d="M165.543 30.625L163.948 30.625L160.88 27.5165L160.88 30.625L159.776 30.625L159.776 24.0625L160.88 24.0625L160.88 27.0559L163.825 24.0625L165.298 24.0625L162.107 27.2861L165.543 30.625Z" fill="#1D1D1B" fill-opacity="1.000000" fill-rule="nonzero"/>
		<path id="Vector" d="M169.593 30.7401C168.611 30.7401 167.752 30.3948 167.138 29.8191C166.525 29.2434 166.157 28.4375 166.157 27.4014C166.157 26.25 166.525 25.4441 167.138 24.8684C167.752 24.2927 168.611 23.9474 169.716 23.9474C170.697 23.9474 171.556 24.2927 172.17 24.8684C172.783 25.4441 173.029 26.25 173.029 27.4014C173.029 28.4375 172.661 29.2434 172.047 29.9342C171.434 30.625 170.697 30.7401 169.593 30.7401ZM169.716 24.7533C168.979 24.7533 168.488 24.9835 167.997 25.4441C167.507 25.9047 167.384 26.4802 167.384 27.4014C167.384 28.2073 167.629 28.783 167.997 29.2434C168.366 29.704 168.979 29.9342 169.716 29.9342C170.452 29.9342 170.943 29.704 171.434 29.2434C171.802 28.783 172.047 28.2073 172.047 27.4014C172.047 26.5955 171.802 25.9047 171.434 25.5592C170.943 24.9835 170.452 24.7533 169.716 24.7533Z" fill="#1D1D1B" fill-opacity="1.000000" fill-rule="nonzero"/>
		<path id="Vector" d="M182.723 30.625L181.619 30.625L181.619 25.2139C181.496 25.4441 181.373 25.9047 181.128 26.3651L179.41 30.625L178.428 30.625L176.588 26.3651C176.465 26.1349 176.342 25.7894 176.097 25.2139L176.097 30.625L175.115 30.625L175.115 24.0625L176.588 24.0625L178.428 28.3224C178.551 28.6677 178.674 29.0132 178.919 29.5889L179.41 28.3224L181.251 24.0625L182.723 24.0625L182.723 30.625Z" fill="#1D1D1B" fill-opacity="1.000000" fill-rule="nonzero"/>
		<path id="Vector" d="M190.945 30.625L189.841 30.625L189.841 24.9835L186.282 24.9835L186.282 30.625L185.178 30.625L185.178 24.0625L190.945 24.0625L190.945 30.625Z" fill="#1D1D1B" fill-opacity="1.000000" fill-rule="nonzero"/>
		<path id="Vector" d="M198.554 30.625L197.449 30.625L197.449 29.5889C196.958 30.3948 196.222 30.7401 195.24 30.7401C194.504 30.7401 194.013 30.5099 193.645 30.1646C193.277 29.8191 193.031 29.3586 193.031 28.783C193.031 27.5165 193.768 26.8257 195.363 26.5955L197.449 26.3651C197.449 25.2139 196.958 24.6382 195.977 24.6382C195.118 24.6382 194.381 24.8684 193.645 25.4441L193.645 24.408C194.381 23.9474 195.118 23.8323 195.977 23.8323C197.572 23.8323 198.431 24.6382 198.431 26.25L198.431 30.625L198.554 30.625ZM197.449 27.2863L195.731 27.5165C195.24 27.6316 194.872 27.7467 194.504 27.8619C194.259 28.0922 194.136 28.3224 194.136 28.783C194.136 29.1283 194.259 29.3586 194.504 29.5889C194.749 29.8191 195.118 29.9342 195.486 29.9342C196.099 29.9342 196.467 29.704 196.836 29.3586C197.204 29.0132 197.326 28.5526 197.326 27.9771L197.326 27.2863L197.449 27.2863Z" fill="#1D1D1B" fill-opacity="1.000000" fill-rule="nonzero"/>
		<path id="Vector" d="M206.653 30.625L205.548 30.625L205.548 27.6316L201.99 27.6316L201.99 30.625L200.885 30.625L200.885 24.0625L201.99 24.0625L201.99 26.7106L205.548 26.7106L205.548 24.0625L206.653 24.0625L206.653 30.625Z" fill="#1D1D1B" fill-opacity="1.000000" fill-rule="nonzero"/>
		<path id="Vector" d="M214.997 30.625L214.016 30.625L214.016 25.4441C213.893 25.6743 213.77 25.9045 213.525 26.25L210.334 30.7401L209.23 30.7401L209.23 24.1776L210.212 24.1776L210.212 29.3585C210.212 29.2434 210.334 29.0132 210.58 28.6677L213.893 24.1776L214.997 24.1776L214.997 30.625Z" fill="#1D1D1B" fill-opacity="1.000000" fill-rule="nonzero"/>
		<path id="Vector" d="M222.36 30.625L221.256 30.625L221.256 27.8618L220.274 27.8618C219.783 27.8618 219.415 28.2073 219.047 28.8981L218.188 30.625L216.838 30.625L218.065 28.5526C218.311 28.0922 218.679 27.7467 219.047 27.6316C218.556 27.5165 218.065 27.4014 217.82 27.0559C217.574 26.7106 217.329 26.3651 217.329 25.9047C217.329 25.329 217.574 24.8684 217.943 24.5231C218.433 24.1776 219.047 24.0625 219.783 24.0625L222.238 24.0625L222.238 30.625L222.36 30.625ZM221.256 27.0559L221.256 24.9835L219.906 24.9835C218.924 24.9835 218.433 25.329 218.433 26.0198C218.433 26.7106 218.924 27.0559 219.783 27.0559L221.256 27.0559Z" fill="#1D1D1B" fill-opacity="1.000000" fill-rule="nonzero"/>
		<path id="Vector" d="M143.577 7.2533L143.577 7.2533" stroke="#1D1D1B" stroke-opacity="1.000000" stroke-width="0.900000"/>
		<path id="Vector" d="M127.379 8.28943L108.971 8.28943C107.376 8.28943 106.762 8.98022 106.762 10.3618L106.762 20.3783C106.762 21.6447 107.008 23.4868 107.008 23.4868L106.885 23.4868C106.885 23.4868 105.903 21.6447 104.922 20.3783L96.0862 8.28943L92.1593 8.28943L92.1593 26.1348C92.1593 26.5953 92.0366 26.8256 91.5457 26.8256L89.9504 26.8256C89.3369 26.8256 89.0914 26.7104 88.9687 26.1348L82.0966 8.28943L77.5562 8.28943L70.5614 26.1348C70.316 26.7104 70.0706 26.8256 69.5797 26.8256L69.0888 26.8256L69.0888 30.2795L71.6658 30.2795C73.2611 30.2795 73.8747 29.9342 74.3655 28.4375L75.8381 24.6381L83.692 24.6381L85.1646 28.4375C85.6554 29.8191 86.269 30.2795 87.987 30.2795L94.2455 30.2795C95.8408 30.2795 96.4543 29.7039 96.4543 28.2072L96.4543 18.1908C96.4543 16.9243 96.2089 15.0822 96.2089 15.0822L96.3316 15.0822C96.3316 15.0822 97.3134 16.9243 98.295 18.1908L107.131 30.2795L110.935 30.2795L110.935 12.4342C110.935 11.9736 111.18 11.7434 111.671 11.7434L117.684 11.7434L117.684 30.2795L121.979 30.2795L121.979 11.7434L124.802 11.7434C125.292 11.7434 125.538 11.9736 125.538 12.4342L125.538 13.8158L129.342 13.8158L129.342 10.3618C129.465 8.86511 128.974 8.28943 127.379 8.28943ZM76.8199 21.2993L78.7833 15.7729C79.1515 14.6217 79.7651 12.5493 79.7651 12.5493L79.8878 12.5493C79.8878 12.5493 80.3786 14.6217 80.8695 15.7729L82.8329 21.2993L76.8199 21.2993Z" fill="#1D1D1B" fill-opacity="1.000000" fill-rule="nonzero"/>
		<path id="Vector" d="M71.5431 11.7434L72.1566 11.7434L72.1566 8.28943L69.3342 8.28943C67.7389 8.28943 67.1253 8.63477 66.6345 10.1316L62.2167 22.3354C61.7258 23.6019 61.3577 25.5592 61.3577 25.5592L61.235 25.5592C61.235 25.5592 60.8668 23.6019 60.376 22.3354L55.8355 10.1316C55.3446 8.75 54.7311 8.28943 53.0131 8.28943L46.0182 8.28943L41.3551 16.4637C40.9869 17.1545 40.3734 17.1545 39.5143 17.1545L37.9191 17.1545L37.9191 10.3618C37.9191 8.86511 37.3055 8.28943 35.7101 8.28943L31.5378 8.28943L31.5378 11.7434L33.0104 11.7434C33.5013 11.7434 33.7467 11.9736 33.7467 12.4342L33.7467 30.2795L38.0417 30.2795L38.0417 20.7236L39.2689 20.7236C40.2506 20.7236 40.8642 20.7236 41.3551 21.4144L45.1592 28.6677C45.8956 30.0493 46.6318 30.2795 48.4726 30.2795L50.9269 30.2795L50.9269 26.8256L50.3133 26.8256C49.577 26.8256 48.9634 26.7104 48.718 26.1348L45.7728 20.4934C45.0366 19.1118 44.3002 18.9967 44.3002 18.9967L44.3002 18.8816C44.3002 18.8816 45.0366 18.5361 45.7728 17.2697L49.0861 11.6283L51.295 11.6283C51.9086 11.6283 52.1541 11.7434 52.2767 12.3191L59.2715 30.1644L63.812 30.1644L70.8068 12.3191C70.6841 11.8585 71.0522 11.7434 71.5431 11.7434Z" fill="#1D1D1B" fill-opacity="1.000000" fill-rule="nonzero"/>
		<path id="Vector" d="M10.6763 5.8717C12.8851 5.8717 14.9713 5.75659 17.0575 5.52637C15.9531 4.25989 14.7259 3.22363 13.8669 2.41772C12.517 1.26648 10.799 0 10.799 0C10.799 0 8.83557 1.15137 7.36298 2.41772C6.50397 3.22363 5.27679 4.25989 4.17236 5.52637C6.25854 5.75659 8.46741 5.8717 10.6763 5.8717Z" fill="#4EA015" fill-opacity="1.000000" fill-rule="nonzero"/>
		<path id="Vector" d="M19.389 9.09546C19.2663 8.86523 19.1436 8.63489 19.0209 8.40466C18.4073 8.51978 17.7938 8.51978 17.0574 8.63489C17.3029 10.0165 17.9164 14.3915 17.9164 17.2698C17.9164 21.875 16.9348 23.2566 16.812 23.4869C16.6893 23.7172 16.4438 23.8323 16.0757 23.8323C15.8303 23.8323 15.7076 23.8323 15.5848 23.7172C15.3394 23.6021 15.2167 23.2566 15.2167 23.0264L14.3577 8.86523C13.6214 8.86523 12.8851 8.98035 12.0261 8.98035L11.9034 23.3718L11.9034 23.4869C11.9034 24.0625 11.4125 24.5231 10.6763 24.5231C10.0627 24.5231 9.57178 24.0625 9.4491 23.4869L9.4491 23.3718L9.32635 8.98035C8.59009 8.98035 7.85376 8.98035 6.99475 8.86523L6.25848 23.0264C6.25848 23.2566 6.13574 23.4869 5.89032 23.7172C5.76764 23.8323 5.52222 23.8323 5.39948 23.8323C5.15405 23.8323 4.90863 23.7172 4.66321 23.4869C4.41772 23.2566 3.55878 21.9902 3.55878 17.2698C3.55878 14.3915 4.1723 10.0165 4.41772 8.63489C3.55872 8.63489 2.94519 8.51978 2.20886 8.40466C2.20886 8.63489 2.08618 8.86523 1.96344 9.09546C0.859009 11.6283 0 14.8521 0 18.8816C0 26.9408 4.29504 29.5889 8.09924 30.2797L8.09924 35.1152L13.2532 35.1152L13.2532 30.2797C15.3394 29.9343 17.0574 29.2435 18.2846 27.9771C20.3707 26.0198 21.3525 23.0264 21.3525 18.8816C21.3525 14.8521 20.4935 11.6283 19.389 9.09546Z" fill="#4EA015" fill-opacity="1.000000" fill-rule="nonzero"/>
	</g>
</svg>
