<svg width="28.000000" height="28.000000" viewBox="0 0 28 28" fill="none" xmlns="http://www.w3.org/2000/svg" xmlns:xlink="http://www.w3.org/1999/xlink">
	<desc>
			Created with Pixso.
	</desc>
	<defs/>
	<path id="Vector" d="M6.80374 19.4299L0 26.1682L1.83179 28L8.5701 21.2617C10.6635 22.8972 13.215 23.8785 16.028 23.8785C22.5701 23.8785 28 18.514 28 11.9065C28 5.29907 22.6355 0 16.0934 0C9.55139 0 4.12149 5.3645 4.12149 11.9719C4.12149 14.7196 5.10281 17.3364 6.80374 19.4299ZM6.73831 11.9719C6.73831 6.80371 10.9252 2.61682 16.0934 2.61682C21.2617 2.61682 25.4486 6.80371 25.4486 11.9719C25.4486 17.1401 21.2617 21.3271 16.0934 21.3271C10.9252 21.3271 6.73831 17.0747 6.73831 11.9719Z" fill="#4EA015" fill-opacity="1.000000" fill-rule="nonzero"/>
</svg>
